<svg width="267.000000" height="255.000000" viewBox="0 0 267 255" fill="none" xmlns="http://www.w3.org/2000/svg" xmlns:xlink="http://www.w3.org/1999/xlink">
	<desc>
			Created with Pixso.
	</desc>
	<defs/>
	<path id="Star 2" d="M45 62.07C1.27 62.07 -16.72 118.18 18.87 143.6C34.89 155.05 41.6 175.59 35.42 194.29L35.36 194.47C21.64 235.99 68.99 270.86 104.58 245.44L106.31 244.21C122.27 232.8 143.72 232.8 159.68 244.21L161.26 245.33C196.89 270.79 244.31 235.87 230.57 194.29C224.39 175.59 231.1 155.05 247.12 143.6C282.71 118.18 264.72 62.07 220.99 62.07L219.68 62.07C200.1 62.07 182.73 49.51 176.59 30.93L176.49 30.63C162.64 -11.29 103.35 -11.29 89.5 30.63C83.3 49.39 65.76 62.07 46 62.07L45 62.07ZM46.38 72.07C11.94 72.07 -2.22 116.25 25.8 136.27C44.72 149.78 52.64 174.04 45.35 196.12L45.26 196.38C34.45 229.1 71.77 256.59 99.82 236.55L101.38 235.44C120.29 221.93 145.7 221.93 164.61 235.44L165.96 236.4C194.07 256.48 231.48 228.93 220.64 196.12C213.35 174.04 221.27 149.78 240.19 136.27C268.21 116.25 254.05 72.07 219.62 72.07L218.44 72.07C195.29 72.07 174.75 57.22 167.48 35.24L167.35 34.83C156.41 1.72 109.58 1.72 98.64 34.83C91.3 57.05 70.53 72.07 47.12 72.07L46.38 72.07Z" fill="#72C007" fill-opacity="1.000000" fill-rule="evenodd"/>
</svg>
