<svg width="43" height="73" viewBox="0 0 43 73" fill="none" xmlns="http://www.w3.org/2000/svg">
<mask id="path-1-inside-1_373_77" fill="white">
<path d="M1.82411 31.6659L33.8685 0.165891C39.9788 -0.545866 41.6056 0.89838 40.8783 7.16687L12.8393 35.6659C12.8393 35.6659 34.579 56.6255 40.3776 62.6659C46.1762 68.7063 35.7277 74.8835 33.3679 71.1659L1.82411 39.6659C-0.676034 36.4989 -0.539078 34.3248 1.82411 31.6659Z"/>
</mask>
<path d="M33.8685 0.165891L31.5544 -19.6998L24.7403 -18.906L19.848 -14.0969L33.8685 0.165891ZM1.82411 31.6659L-12.1963 17.4031L-12.677 17.8756L-13.1248 18.3795L1.82411 31.6659ZM1.82411 39.6659L-13.8739 52.0584L-13.1429 52.9843L-12.3082 53.8178L1.82411 39.6659ZM33.3679 71.1659L50.2532 60.4474L49.0667 58.5783L47.5002 57.014L33.3679 71.1659ZM40.3776 62.6659L54.8056 48.8155L54.8056 48.8155L40.3776 62.6659ZM12.8393 35.6659L-1.41741 21.6393L-15.5868 36.0412L-1.04212 50.064L12.8393 35.6659ZM40.8783 7.16687L55.135 21.1935L59.9531 16.2963L60.745 9.47209L40.8783 7.16687ZM19.848 -14.0969L-12.1963 17.4031L15.8446 45.9287L47.889 14.4287L19.848 -14.0969ZM-13.1248 18.3795C-15.7335 21.3146 -19.8875 27.0116 -19.9978 35.2061C-20.105 43.1712 -16.3104 48.9719 -13.8739 52.0584L17.5221 27.2734C17.5868 27.3554 18.1766 28.1017 18.7638 29.4457C19.399 30.8994 20.0346 33.0674 19.9986 35.7445C19.9225 41.3956 17.0185 44.6761 16.7731 44.9523L-13.1248 18.3795ZM-12.3082 53.8178L19.2355 85.3178L47.5002 57.014L15.9564 25.514L-12.3082 53.8178ZM16.4825 81.8844C22.8311 91.8856 33.3724 92.7656 38.7244 92.1049C44.2842 91.4186 49.1605 88.9456 52.8024 85.8839C56.4531 82.8147 60.7409 77.5216 61.8488 69.9672C63.087 61.5238 59.8128 54.0316 54.8056 48.8155L25.9496 76.5163C23.8416 74.3204 21.4358 69.8655 22.2721 64.1631C22.978 59.3495 25.5934 56.501 27.0619 55.2664C28.5215 54.0394 30.7057 52.7912 33.8238 52.4063C36.7342 52.047 45.0845 52.305 50.2532 60.4474L16.4825 81.8844ZM54.8056 48.8155C51.6166 45.4935 44.4476 38.4704 38.3831 32.5682C35.2847 29.5527 32.3709 26.7293 30.2328 24.6609C29.1633 23.6262 28.2868 22.7794 27.6771 22.1906C27.3722 21.8962 27.1339 21.6663 26.9715 21.5096C26.8902 21.4312 26.828 21.3712 26.7858 21.3305C26.7647 21.3102 26.7487 21.2947 26.7378 21.2842C26.7324 21.2789 26.7282 21.2749 26.7254 21.2722C26.724 21.2708 26.7229 21.2698 26.7221 21.2691C26.7217 21.2687 26.7214 21.2684 26.7212 21.2682C26.721 21.268 26.7208 21.2678 12.8393 35.6659C-1.04212 50.064 -1.04211 50.064 -1.04202 50.0641C-1.04188 50.0642 -1.04171 50.0644 -1.04143 50.0647C-1.04087 50.0652 -1.03998 50.0661 -1.03876 50.0672C-1.03633 50.0696 -1.03259 50.0732 -1.02756 50.078C-1.0175 50.0877 -1.00229 50.1024 -0.982058 50.1219C-0.941596 50.1609 -0.881079 50.2193 -0.801656 50.2959C-0.642806 50.4492 -0.408351 50.6754 -0.107481 50.966C0.494305 51.547 1.36153 52.3849 2.42072 53.4096C4.53997 55.4598 7.42353 58.2539 10.4849 61.2333C16.7399 67.321 23.34 73.7979 25.9496 76.5163L54.8056 48.8155ZM27.0961 49.6925L55.135 21.1935L26.6215 -6.85971L-1.41741 21.6393L27.0961 49.6925ZM60.745 9.47209C61.004 7.23993 61.2528 3.98387 60.7425 0.460912C60.2022 -3.2685 58.5979 -8.67697 53.9203 -13.2509C49.2736 -17.7946 43.8888 -19.2668 40.2845 -19.7469C36.8522 -20.2041 33.6871 -19.9482 31.5544 -19.6998L36.1826 20.0316C37.105 19.9241 36.4346 20.0936 35.0032 19.9029C33.3997 19.6893 29.5218 18.8365 25.9547 15.3485C22.3567 11.8302 21.4046 7.91365 21.1557 6.1958C20.9368 4.68441 21.1162 3.95957 21.0116 4.86165L60.745 9.47209Z" fill="#171616" mask="url(#path-1-inside-1_373_77)"/>
</svg>
