<svg width="43" height="73" viewBox="0 0 43 73" fill="none" xmlns="http://www.w3.org/2000/svg">
<mask id="path-1-inside-1_373_78" fill="white">
<path d="M40.2823 40.6261L8.23794 72.1261C2.12769 72.8379 0.50082 71.3936 1.22818 65.1251L29.2671 36.6261C29.2671 36.6261 7.52747 15.6665 1.72887 9.62609C-4.06972 3.58566 6.3787 -2.59155 8.73858 1.12609L40.2823 32.6261C42.7825 35.7931 42.6455 37.9672 40.2823 40.6261Z"/>
</mask>
<path d="M8.23794 72.1261L10.552 91.9918L17.3661 91.198L22.2584 86.3889L8.23794 72.1261ZM40.2823 40.6261L54.3028 54.8889L54.7835 54.4163L55.2313 53.9125L40.2823 40.6261ZM40.2823 32.6261L55.9803 20.2336L55.2494 19.3077L54.4147 18.4741L40.2823 32.6261ZM8.73858 1.12609L-8.14676 11.8446L-6.96028 13.7137L-5.39374 15.278L8.73858 1.12609ZM1.72887 9.62609L-12.6991 23.4765L-12.6991 23.4765L1.72887 9.62609ZM29.2671 36.6261L43.5239 50.6527L57.6932 36.2508L43.1486 22.228L29.2671 36.6261ZM1.22818 65.1251L-13.0286 51.0985L-17.8467 55.9957L-18.6385 62.8199L1.22818 65.1251ZM22.2584 86.3889L54.3028 54.8889L26.2619 26.3633L-5.78252 57.8633L22.2584 86.3889ZM55.2313 53.9125C57.84 50.9774 61.994 45.2804 62.1043 37.0858C62.2115 29.1208 58.4169 23.3201 55.9803 20.2336L24.5843 45.0186C24.5196 44.9366 23.9299 44.1903 23.3426 42.8463C22.7074 41.3926 22.0719 39.2246 22.1079 36.5474C22.184 30.8964 25.0879 27.6159 25.3334 27.3397L55.2313 53.9125ZM54.4147 18.4741L22.8709 -13.0259L-5.39374 15.278L26.15 46.778L54.4147 18.4741ZM25.6239 -9.59237C19.2753 -19.5937 8.73401 -20.4736 3.382 -19.8129C-2.17773 -19.1266 -7.0541 -16.6536 -10.6959 -13.5919C-14.3467 -10.5227 -18.6344 -5.22965 -19.7423 2.32481C-20.9806 10.7682 -17.7064 18.2604 -12.6991 23.4765L16.1569 -4.22427C18.2648 -2.0284 20.6706 2.42646 19.8343 8.12893C19.1284 12.9425 16.513 15.791 15.0445 17.0256C13.585 18.2526 11.4008 19.5008 8.28263 19.8857C5.37221 20.245 -2.97809 19.987 -8.14676 11.8446L25.6239 -9.59237ZM-12.6991 23.4765C-9.51011 26.7985 -2.34111 33.8216 3.72334 39.7238C6.82175 42.7393 9.73551 45.5627 11.8736 47.6311C12.9431 48.6658 13.8196 49.5126 14.4294 50.1014C14.7343 50.3958 14.9725 50.6257 15.135 50.7824C15.2162 50.8608 15.2785 50.9208 15.3206 50.9615C15.3417 50.9818 15.3578 50.9973 15.3686 51.0078C15.3741 51.013 15.3782 51.017 15.3811 51.0198C15.3825 51.0212 15.3836 51.0222 15.3843 51.0229C15.3847 51.0233 15.3851 51.0236 15.3852 51.0238C15.3855 51.024 15.3856 51.0242 29.2671 36.6261C43.1486 22.228 43.1486 22.228 43.1485 22.2279C43.1483 22.2278 43.1482 22.2276 43.1479 22.2273C43.1473 22.2268 43.1464 22.2259 43.1452 22.2248C43.1428 22.2224 43.139 22.2188 43.134 22.214C43.1239 22.2043 43.1087 22.1896 43.0885 22.1701C43.048 22.1311 42.9875 22.0727 42.9081 21.9961C42.7493 21.8428 42.5148 21.6165 42.2139 21.326C41.6121 20.745 40.7449 19.9071 39.6857 18.8824C37.5665 16.8322 34.6829 14.0381 31.6216 11.0587C25.3666 4.97102 18.7665 -1.50587 16.1569 -4.22427L-12.6991 23.4765ZM15.0104 22.5995L-13.0286 51.0985L15.4849 79.1517L43.5239 50.6527L15.0104 22.5995ZM-18.6385 62.8199C-18.8975 65.0521 -19.1464 68.3081 -18.636 71.8311C-18.0958 75.5605 -16.4914 80.969 -11.8138 85.5429C-7.16718 90.0866 -1.78236 91.5588 1.82198 92.0389C5.2542 92.4961 8.4193 92.2402 10.552 91.9918L5.92387 52.2604C5.00145 52.3679 5.67185 52.1984 7.10326 52.3891C8.70678 52.6027 12.5847 53.4555 16.1517 56.9435C19.7498 60.4618 20.7019 64.3783 20.9507 66.0962C21.1697 67.6076 20.9902 68.3324 21.0949 67.4303L-18.6385 62.8199Z" fill="#171616" mask="url(#path-1-inside-1_373_78)"/>
</svg>
